<?xml version="1.0" standalone="no"?>
<!DOCTYPE svg PUBLIC "-//W3C//DTD SVG 20010904//EN"
 "http://www.w3.org/TR/2001/REC-SVG-20010904/DTD/svg10.dtd">
<svg version="1.0" xmlns="http://www.w3.org/2000/svg"
 width="500.000000pt" height="500.000000pt" viewBox="0 0 500.000000 500.000000"
 preserveAspectRatio="xMidYMid meet">

<g transform="translate(0.000000,500.000000) scale(0.100000,-0.100000)"
fill="#000000" stroke="none">
<path d="M573 2664 c-180 -212 -329 -389 -331 -395 -2 -5 83 -9 216 -9 l221 0
63 74 c35 41 65 75 68 75 3 1 24 -31 48 -69 24 -39 45 -70 48 -70 2 0 25 32
50 71 38 59 48 69 58 58 7 -8 37 -42 66 -76 l53 -63 219 0 c162 0 219 3 216
12 -6 16 -651 777 -660 777 -4 1 -155 -173 -335 -385z m621 -18 c152 -179 276
-327 276 -330 0 -3 -78 -6 -174 -6 l-173 0 -52 59 c-28 33 -51 63 -51 67 0 4
19 36 41 71 l41 63 -85 132 c-47 73 -92 141 -100 151 -12 17 -22 6 -109 -133
l-96 -152 39 -60 c21 -34 39 -66 39 -72 0 -6 -24 -37 -53 -69 l-52 -58 -174 3
-174 3 238 280 c334 392 327 385 335 380 4 -3 132 -151 284 -329z m-215 44
c39 -60 71 -114 71 -120 0 -8 -42 -83 -56 -99 -2 -2 -23 17 -46 44 l-42 48
-42 -48 -41 -48 -32 47 c-18 26 -30 53 -27 61 5 15 138 225 142 225 1 0 34
-49 73 -110z m-35 -206 c25 -30 27 -38 17 -62 -6 -15 -22 -40 -34 -56 l-23
-29 -33 52 c-29 44 -31 54 -20 69 25 33 53 62 58 61 3 0 19 -16 35 -35z"/>
<path d="M2020 2470 l0 -210 25 0 25 0 0 125 0 125 68 0 c40 0 73 -5 80 -12 8
-8 12 -50 12 -125 l0 -113 25 0 25 0 0 128 c0 121 -1 130 -23 150 -20 19 -35
22 -105 22 l-82 0 0 60 c0 57 -1 60 -25 60 l-25 0 0 -210z"/>
<path d="M2785 2656 c-17 -17 -25 -36 -25 -61 0 -28 -4 -35 -20 -35 -15 0 -20
-7 -20 -25 0 -18 5 -25 20 -25 19 0 20 -7 20 -125 l0 -125 30 0 30 0 0 124 0
125 43 3 c35 2 43 7 45 26 3 20 -1 22 -43 22 -46 0 -46 0 -43 33 3 29 6 32 43
37 32 4 40 9 40 25 0 17 -8 20 -47 23 -40 3 -52 -1 -73 -22z"/>
<path d="M4140 2620 l0 -60 -83 0 c-115 0 -117 -3 -117 -152 0 -146 2 -148
122 -148 75 0 87 2 106 23 21 22 22 32 22 210 l0 187 -25 0 c-24 0 -25 -3 -25
-60z m-2 -207 l-3 -98 -70 0 -70 0 -3 84 c-2 46 -1 90 2 98 4 9 26 13 76 13
l71 0 -3 -97z"/>
<path d="M4320 2635 c0 -41 2 -45 25 -45 23 0 25 4 25 45 0 41 -2 45 -25 45
-23 0 -25 -4 -25 -45z"/>
<path d="M3337 2613 c-4 -3 -7 -17 -7 -30 0 -16 -6 -23 -20 -23 -15 0 -20 -7
-20 -25 0 -18 5 -25 20 -25 19 0 20 -7 20 -99 0 -84 3 -102 21 -125 18 -22 28
-26 75 -26 52 0 55 2 52 23 -2 18 -11 23 -43 27 l-40 5 -3 97 -3 97 43 3 c36
2 44 7 46 26 3 20 -1 22 -42 22 -44 0 -46 1 -46 30 0 25 -4 30 -23 30 -13 0
-27 -3 -30 -7z"/>
<path d="M1672 2537 c-26 -27 -31 -117 -9 -135 7 -6 53 -12 102 -14 83 -3 90
-5 89 -23 -3 -59 1 -56 -76 -53 -67 3 -73 5 -76 26 -3 16 -10 22 -28 22 -20 0
-24 -5 -24 -28 0 -17 10 -37 23 -50 20 -19 35 -22 108 -22 76 0 88 2 107 23
26 27 31 117 9 135 -7 6 -53 12 -103 14 l-89 3 0 35 0 35 70 0 c63 0 71 -2 80
-22 6 -14 18 -23 32 -23 32 0 31 49 0 78 -20 19 -35 22 -108 22 -76 0 -88 -2
-107 -23z"/>
<path d="M2412 2537 c-12 -13 -22 -35 -22 -50 0 -22 5 -27 24 -27 17 0 26 7
30 25 6 25 9 26 79 23 l72 -3 3 -37 3 -38 -93 0 c-60 0 -98 -4 -106 -12 -7 -7
-12 -35 -12 -63 0 -79 23 -95 131 -95 76 0 88 2 107 23 20 21 22 34 22 128 0
97 -2 107 -23 127 -20 19 -35 22 -108 22 -76 0 -88 -2 -107 -23z m186 -184
l-3 -38 -72 -3 c-70 -3 -73 -2 -79 23 -12 48 -1 55 81 55 l76 0 -3 -37z"/>
<path d="M2982 2537 c-17 -18 -22 -36 -22 -73 0 -28 5 -55 12 -62 8 -8 46 -12
106 -12 l93 0 -3 -37 -3 -38 -72 -3 c-71 -3 -73 -2 -79 23 -5 19 -12 25 -28
23 -30 -4 -33 -44 -5 -74 20 -22 31 -24 109 -24 78 0 89 2 108 23 17 18 22 36
22 73 0 28 -5 55 -12 62 -8 8 -45 12 -100 12 -96 0 -106 6 -94 55 6 25 9 26
79 23 66 -3 72 -5 75 -25 3 -17 10 -23 28 -23 20 0 24 5 24 28 0 17 -10 37
-23 50 -20 19 -35 22 -108 22 -76 0 -88 -2 -107 -23z"/>
<path d="M3567 2553 c-4 -3 -7 -59 -7 -123 0 -104 2 -120 21 -144 19 -25 25
-26 108 -26 79 0 90 2 109 23 20 21 22 34 22 150 l0 127 -25 0 -24 0 -3 -122
-3 -123 -70 0 -70 0 -3 123 c-3 120 -3 122 -26 122 -12 0 -26 -3 -29 -7z"/>
<path d="M4320 2410 l0 -150 25 0 25 0 0 150 0 150 -25 0 -25 0 0 -150z"/>
<path d="M4507 2542 c-14 -15 -17 -41 -17 -134 0 -146 2 -148 122 -148 75 0
87 2 106 23 20 21 22 34 22 128 0 97 -2 107 -23 127 -20 19 -35 22 -109 22
-70 0 -88 -3 -101 -18z m178 -132 l0 -95 -70 0 -70 0 -3 84 c-2 46 0 91 2 98
4 10 23 13 73 11 l68 -3 0 -95z"/>
<path d="M680 2225 c0 -10 221 -285 228 -284 8 0 215 263 220 279 2 5 -12 10
-30 10 -22 0 -59 -15 -108 -45 -41 -24 -79 -45 -84 -45 -5 0 -42 20 -83 45
-50 30 -85 45 -108 45 -19 0 -35 -2 -35 -5z m162 -95 c55 -35 65 -38 83 -26
64 41 118 68 110 56 -11 -20 -125 -160 -130 -160 -2 0 -88 105 -128 158 -16
20 -1 14 65 -28z"/>
</g>
</svg>
